<svg width="3009" height="1003" viewBox="0 0 3009 1003" fill="none" xmlns="http://www.w3.org/2000/svg">
<path d="M0 0H3009V1003H0V0Z" fill="#00653C"/>
<path d="M1546.51 434.298L1533.52 533.972L1578.3 434.298H1671.61C1682.36 434.298 1688.77 446.277 1682.81 455.219L1458.3 791.983C1450.39 803.848 1431.88 796.875 1433.76 782.741L1478.66 445.976C1479.55 439.291 1485.26 434.298 1492 434.298H1546.51Z" fill="white"/>
<path d="M1530.47 557.419C1529.6 564.121 1523.88 569.136 1517.13 569.136H1337.48C1326.75 569.136 1320.33 557.187 1326.26 548.243L1549.86 211.063C1557.74 199.182 1576.26 206.103 1574.41 220.239L1530.47 557.419Z" fill="white"/>
</svg>
